<svg width="21" height="20" viewBox="0 0 21 20" fill="none" xmlns="http://www.w3.org/2000/svg">
<g>
<path d="M14.2508 0H6.75082C3.29957 0 0.500824 2.79875 0.500824 6.25V13.75C0.500824 17.2013 3.29957 20 6.75082 20H14.2508C17.7021 20 20.5008 17.2013 20.5008 13.75V6.25C20.5008 2.79875 17.7021 0 14.2508 0ZM18.6258 13.75C18.6258 16.1625 16.6633 18.125 14.2508 18.125H6.75082C4.33832 18.125 2.37582 16.1625 2.37582 13.75V6.25C2.37582 3.8375 4.33832 1.875 6.75082 1.875H14.2508C16.6633 1.875 18.6258 3.8375 18.6258 6.25V13.75Z" fill="white"/>
<path d="M10.5008 5C7.73957 5 5.50082 7.23875 5.50082 10C5.50082 12.7613 7.73957 15 10.5008 15C13.2621 15 15.5008 12.7613 15.5008 10C15.5008 7.23875 13.2621 5 10.5008 5ZM10.5008 13.125C8.77832 13.125 7.37582 11.7225 7.37582 10C7.37582 8.27625 8.77832 6.875 10.5008 6.875C12.2233 6.875 13.6258 8.27625 13.6258 10C13.6258 11.7225 12.2233 13.125 10.5008 13.125Z" fill="white"/>
<path d="M15.8758 5.29126C16.2438 5.29126 16.5421 4.99297 16.5421 4.62501C16.5421 4.25705 16.2438 3.95876 15.8758 3.95876C15.5079 3.95876 15.2096 4.25705 15.2096 4.62501C15.2096 4.99297 15.5079 5.29126 15.8758 5.29126Z" fill="white"/>
</g>
</svg>
