<svg width="45" height="42" viewBox="0 0 45 42" fill="none" xmlns="http://www.w3.org/2000/svg">
<path fill-rule="evenodd" clip-rule="evenodd" d="M15 5.57374V34.846V37.6329L12.001 36.2415L9.00202 34.846L6.00302 33.4506V30.6637V9.75607L3.00404 11.1515V32.0592L0 30.6637V20.2099V12.5429V9.75607L3.00404 8.36061L6.00302 6.9692L9.00202 5.57374V8.36061V32.0592L12.001 33.4506V6.9692V4.18233L15 2.78687L20.998 0V2.78687V37.6329L22.5 38.3306L24.002 37.6329V2.78687V0L27.001 1.3914L30 2.78687L32.999 4.18233V6.9692V33.4506L35.998 32.0592V8.36061V5.57374L38.997 6.9692L41.996 8.36061L45 9.75607V12.5429V20.2099V30.6637L41.996 32.0592V11.1515L38.997 9.75607V30.6637V33.4506L35.998 34.846L32.999 36.2415L30 37.6329V34.846V5.57374L27.001 4.18233V39.0284L25.499 39.7261L24.002 40.4198L22.5 41.1175L20.998 40.4198L19.501 39.7261L17.999 39.0284V36.2415V4.18233L15 5.57374Z" fill="white"/>
</svg>
